{"title":"The Mule 2014 UNRATED HDRIP x264 AC3 TiTAN","uid":11533574,"size":1379796069,"categoryP":"video","categoryS":"movies","magnet":"?xt=urn:btih:dffc1510a5f0e3f02ecfe8af238c5567a2197ed5&amp;dn=The+Mule+2014+UNRATED+HDRIP+x264+AC3+TiTAN&amp;tr=udp%3A%2F%2Ftracker.openbittorrent.com%3A80&amp;tr=udp%3A%2F%2Fopen.demonii.com%3A1337&amp;tr=udp%3A%2F%2Ftracker.coppersurfer.tk%3A6969&amp;tr=udp%3A%2F%2Fexodus.desync.com%3A6969","seeders":1,"leechers":5,"uploader":"TvTeam","files":3,"time":1416602352,"description":" &lt;a href=&quot;http://www.torrenting.com&quot; rel=&quot;nofollow&quot; target=&quot;_NEW&quot;&gt;http://www.torrenting.com&lt;/a&gt;\n\nSign up is OPEN - for time being. Come and have fun.\n\n------------------------------------------------------------------[IMG]http://i.imgur.com/iRVnRU1.jpg[/IMG]\n &lt;a href=&quot;\nhttp://www.imdb.com/title/tt2130270/&quot; rel=&quot;nofollow&quot; target=&quot;_NEW&quot;&gt;\nhttp://www.imdb.com/title/tt2130270/&lt;/a&gt;\n\nSource: Itunes\n\nGeneral\n\nFormat                                   : Matroska\nFormat version                           : Version 2\nFile size                                : 1.29 GiB\nDuration                                 : 1h 42mn\nOverall bit rate mode                    : Variable\nOverall bit rate                         : 1 788 Kbps\nEncoded date                             : UTC 2014-11-21 14:55:30\n\nVideo\nID                                       : 1\nFormat                                   : AVC\nFormat/Info                              : Advanced Video Codec\nFormat profile                           : &lt;a class=&quot;__cf_email__&quot; href=&quot;/cdn-cgi/l/email-protection&quot; data-cfemail=&quot;662e0f010e262a524857&quot;&gt;[email&amp;#160;protected]&lt;/a&gt;&lt;script cf-hash='f9e31' type=&quot;text/javascript&quot;&gt;\n/* &lt;![CDATA[ */!function(){try{var t=&quot;currentScript&quot;in document?document.currentScript:function(){for(var t=document.getElementsByTagName(&quot;script&quot;),e=t.length;e--;)if(t[e].getAttribute(&quot;cf-hash&quot;))return t[e]}();if(t&amp;&amp;t.previousSibling){var e,r,n,i,c=t.previousSibling,a=c.getAttribute(&quot;data-cfemail&quot;);if(a){for(e=&quot;&quot;,r=parseInt(a.substr(0,2),16),n=2;a.length-n;n+=2)i=parseInt(a.substr(n,2),16)^r,e+=String.fromCharCode(i);e=document.createTextNode(e),c.parentNode.replaceChild(e,c)}}}catch(u){}}();/* ]]&gt; */&lt;/script&gt;\nFormat settings, CABAC                   : Yes\nFormat settings, ReFrames                : 3 frames\nCodec ID                                 : V_MPEG4/ISO/AVC\nDuration                                 : 1h 42mn\nBit rate mode                            : Variable\nBit rate                                 : 1 368 Kbps\nMaximum bit rate                         : 40.0 Mbps\nWidth                                    : 720 pixels\nHeight                                   : 304 pixels\nDisplay aspect ratio                     : 2.35:1\nFrame rate mode                          : Constant\nFrame rate                               : 23.976 fps\nColor space                              : YUV\nChroma subsampling                       : 4:2:0\nBit depth                                : 8 bits\nScan type                                : Progressive\nBits/(Pixel*Frame)                       : 0.261\nStream size                              : 1 007 MiB (77%)\nDefault                                  : Yes\nForced                                   : No\nColor primaries                          : BT.709\nTransfer characteristics                 : BT.709\nMatrix coefficients                      : BT.709\n\nAudio\nID                                       : 2\nFormat                                   : AC-3\nFormat/Info                              : Audio Coding 3\nMode extension                           : CM (complete main)\nFormat settings, Endianness              : Big\nCodec ID                                 : A_AC3\nDuration                                 : 1h 42mn\nBit rate mode                            : Constant\nBit rate                                 : 384 Kbps\nChannel(s)                               : 6 channels\nChannel positions                        : Front: L C R, Side: L R, LFE\nSampling rate                            : 48.0 KHz\nBit depth                                : 16 bits\nCompression mode                         : Lossy\nStream size                              : 283 MiB (21%)\nLanguage                                 : English\nDefault                                  : Yes\nForced                                   : No\n\n[IMG]http://i.imgur.com/iDlbgfX.png[/IMG]\n[IMG]http://i.imgur.com/O2q1a9L.png[/IMG]\n[IMG]http://i.imgur.com/ncAV1KT.png[/IMG]\n[IMG]http://i.imgur.com/mrs0MxB.png[/IMG]\n[IMG]http://i.imgur.com/sOL7VBs.png[/IMG]\n[IMG]http://i.imgur.com/nWLqrZq.png[/IMG]","torrent":{"xt":"urn:btih:dffc1510a5f0e3f02ecfe8af238c5567a2197ed5","amp;dn":"The+Mule+2014+UNRATED+HDRIP+x264+AC3+TiTAN","amp;tr":["udp%3A%2F%2Ftracker.openbittorrent.com%3A80","udp%3A%2F%2Fopen.demonii.com%3A1337","udp%3A%2F%2Ftracker.coppersurfer.tk%3A6969","udp%3A%2F%2Fexodus.desync.com%3A6969"],"infoHash":"dffc1510a5f0e3f02ecfe8af238c5567a2197ed5","infoHashBuffer":{"type":"Buffer","data":[223,252,21,16,165,240,227,240,46,207,232,175,35,140,85,103,162,25,126,213]},"announce":[],"urlList":[]}}